<svg width="1024" height="1024" viewBox="0 0 1024 1024" fill="none" xmlns="http://www.w3.org/2000/svg">
<path d="M885.9 490.3C889.5 478.3 891.3 465.9 891.3 453.3C891.3 425 882 397.8 865.2 375.6C868.8 363.6 870.6 351.2 870.6 338.6C870.6 310.3 861.3 283.1 844.5 260.9C848.1 248.9 849.9 236.5 849.9 223.9C849.9 172.3 819.2 125.8 771.6 105.5C763.233 101.893 754.211 100.054 745.1 100.1H273V528.1H273.3L359.1 838.9C372.9 889 418.9 924 470.9 924C500.6 924 528.3 912.2 548.8 890.6C569.3 869.1 579.8 840.9 578.3 811.2L572.3 688.3H812.2C824.3 688.3 836.1 685.1 846.5 679C886.9 655.5 912 612.9 912 568C912 539.7 902.7 512.5 885.9 490.3V490.3ZM112 132V496C112 513.7 126.3 528 144 528H209V100H144C126.3 100 112 114.3 112 132Z" fill="#9747FF"/>
</svg>
