<svg width="1024" height="1024" viewBox="0 0 1024 1024" fill="none" xmlns="http://www.w3.org/2000/svg">
<path d="M885.9 533.7C902.7 511.5 912 484.3 912 456C912 411.1 886.9 368.6 846.5 344.9C836.099 338.8 824.258 335.589 812.2 335.6H572.4L578.4 212.7C579.8 183 569.3 154.8 548.9 133.3C538.889 122.703 526.81 114.271 513.412 108.527C500.013 102.782 485.578 99.8458 471 99.9C419 99.9 373 134.9 359.2 185L273.3 496H273V924H745.3C754.5 924 763.5 922.2 771.8 918.6C819.4 898.3 850.1 851.8 850.1 800.2C850.1 787.6 848.3 775.2 844.7 763.2C861.5 741 870.8 713.8 870.8 685.5C870.8 672.9 869 660.5 865.4 648.5C882.2 626.3 891.5 599.1 891.5 570.8C891.3 558.2 889.5 545.7 885.9 533.7V533.7ZM112 528V892C112 909.7 126.3 924 144 924H209V496H144C126.3 496 112 510.3 112 528Z" fill="#9747FF"/>
</svg>
