<svg width="60" height="60" viewBox="0 0 60 60" fill="none" xmlns="http://www.w3.org/2000/svg">
<path d="M50 27.4975H55C55 14.6725 45.3175 5 32.475 5V10C42.63 10 50 17.3575 50 27.4975Z" fill="#ED9D7B"/>
<path d="M32.5 20.0001C37.7575 20.0001 40 22.2426 40 27.5001H45C45 19.4376 40.5625 15.0001 32.5 15.0001V20.0001ZM41.055 33.6076C40.5746 33.171 39.9433 32.9381 39.2945 32.9582C38.6456 32.9782 38.03 33.2497 37.5775 33.7151L31.595 39.8676C30.155 39.5926 27.26 38.6901 24.28 35.7176C21.3 32.7351 20.3975 29.8326 20.13 28.4026L26.2775 22.4176C26.7435 21.9654 27.0153 21.3497 27.0354 20.7006C27.0554 20.0516 26.8222 19.4202 26.385 18.9401L17.1475 8.78261C16.7101 8.301 16.1022 8.00887 15.4529 7.96826C14.8035 7.92765 14.164 8.14175 13.67 8.56511L8.24497 13.2176C7.81275 13.6514 7.55477 14.2287 7.51997 14.8401C7.48247 15.4651 6.76747 30.2701 18.2475 41.7551C28.2625 51.7676 40.8075 52.5001 44.2625 52.5001C44.7675 52.5001 45.0775 52.4851 45.16 52.4801C45.7713 52.4459 46.3483 52.1868 46.78 51.7526L51.43 46.3251C51.8536 45.8314 52.0682 45.192 52.028 44.5427C51.9879 43.8934 51.6962 43.2853 51.215 42.8476L41.055 33.6076Z" fill="#ED9D7B"/>
</svg>
