<svg width="60" height="45" viewBox="0 0 60 45" fill="none" xmlns="http://www.w3.org/2000/svg">
<g opacity="0.9" clip-path="url(#clip0_15_4)">
<path d="M13.6364 44.7786V21.7167L6.44695 15.1735L0 11.5425V40.7088C0 42.9606 1.83398 44.7786 4.09102 44.7786H13.6364V44.7786Z" fill="#4285F4"/>
<path d="M46.3636 44.7786H55.909C58.1729 44.7786 60.0001 42.9539 60.0001 40.7088V11.5427L52.6979 15.7016L46.3636 21.7167V44.7786V44.7786Z" fill="#34A853"/>
<path d="M13.6364 21.7166L12.6581 12.7057L13.6364 4.0813L30 16.2905L46.3636 4.0813L47.4581 12.2401L46.3636 21.7166L30 33.9259L13.6364 21.7166Z" fill="#EA4335"/>
<path d="M46.3636 4.08117V21.7165L60.0001 11.5423V6.11596C60.0001 1.08319 54.2251 -1.78585 50.1821 1.23241L46.3636 4.08117Z" fill="#FBBC04"/>
<path d="M0 11.5422L6.27164 16.2217L13.6364 21.7164V4.08104L9.81797 1.23228C5.76797 -1.78622 0 1.08306 0 6.1156V11.542V11.5422Z" fill="#C5221F"/>
</g>
<defs>
<clipPath id="clip0_15_4">
<rect width="60" height="45" fill="white"/>
</clipPath>
</defs>
</svg>
