<svg width="26" height="25" viewBox="0 0 26 25" fill="none" xmlns="http://www.w3.org/2000/svg">
<path d="M12.8787 8.06575C10.5133 8.06575 8.58289 9.87913 8.58289 12.1012C8.58289 14.3233 10.5133 16.1366 12.8787 16.1366C15.2441 16.1366 17.1745 14.3233 17.1745 12.1012C17.1745 9.87913 15.2441 8.06575 12.8787 8.06575ZM25.7629 12.1012C25.7629 10.4301 25.779 8.77415 25.6791 7.10608C25.5792 5.16858 25.1087 3.44905 23.6005 2.03225C22.089 0.612424 20.2618 0.173459 18.1993 0.0796114C16.4204 -0.0142363 14.6576 0.000900466 12.8819 0.000900466C11.103 0.000900466 9.34021 -0.0142363 7.56453 0.0796114C5.50203 0.173459 3.67156 0.615451 2.16336 2.03225C0.651935 3.45207 0.18465 5.16858 0.0847476 7.10608C-0.0151548 8.77717 0.00095856 10.4331 0.00095856 12.1012C0.00095856 13.7693 -0.0151548 15.4283 0.0847476 17.0963C0.18465 19.0338 0.655158 20.7533 2.16336 22.1701C3.67479 23.59 5.50203 24.0289 7.56453 24.1228C9.34344 24.2166 11.1062 24.2015 12.8819 24.2015C14.6608 24.2015 16.4236 24.2166 18.1993 24.1228C20.2618 24.0289 22.0923 23.5869 23.6005 22.1701C25.1119 20.7503 25.5792 19.0338 25.6791 17.0963C25.7822 15.4283 25.7629 13.7723 25.7629 12.1012ZM12.8787 18.3103C9.22098 18.3103 6.26902 15.5372 6.26902 12.1012C6.26902 8.66516 9.22098 5.89211 12.8787 5.89211C16.5364 5.89211 19.4884 8.66516 19.4884 12.1012C19.4884 15.5372 16.5364 18.3103 12.8787 18.3103ZM19.7591 7.08791C18.9051 7.08791 18.2154 6.44006 18.2154 5.63782C18.2154 4.83557 18.9051 4.18772 19.7591 4.18772C20.6131 4.18772 21.3027 4.83557 21.3027 5.63782C21.303 5.82831 21.2632 6.01699 21.1857 6.19303C21.1082 6.36907 20.9945 6.52902 20.8512 6.66372C20.7078 6.79843 20.5375 6.90523 20.3501 6.97802C20.1627 7.05081 19.9618 7.08815 19.7591 7.08791Z" fill="black"/>
</svg>
